ffmpeg version 4.1.4-1+rpt1~deb10u1 Copyright (c) 2000-2019 the FFmpeg developers
  built with gcc 8 (Raspbian 8.3.0-6+rpi1)
  configuration: --prefix=/usr --extra-version='1+rpt1~deb10u1' --toolchain=hardened --libdir=/usr/lib/arm-linux-gnueabihf --incdir=/usr/include/arm-linux-gnueabihf --arch=arm --enable-gpl --disable-stripping --enable-avresample --disable-filter=resample --enable-avisynth --enable-gnutls --enable-ladspa --enable-libaom --enable-libass --enable-libbluray --enable-libbs2b --enable-libcaca --enable-libcdio --enable-libcodec2 --enable-libflite --enable-libfontconfig --enable-libfreetype --enable-libfribidi --enable-libgme --enable-libgsm --enable-libjack --enable-libmp3lame --enable-libmysofa --enable-libopenjpeg --enable-libopenmpt --enable-libopus --enable-libpulse --enable-librsvg --enable-librubberband --enable-libshine --enable-libsnappy --enable-libsoxr --enable-libspeex --enable-libssh --enable-libtheora --enable-libtwolame --enable-libvidstab --enable-libvorbis --enable-libvpx --enable-libwavpack --enable-libwebp --enable-libx265 --enable-libxml2 --enable-libxvid --enable-libzmq --enable-libzvbi --enable-lv2 --enable-omx --enable-openal --enable-opengl --enable-sdl2 --enable-omx-rpi --enable-mmal --enable-libdc1394 --enable-libdrm --enable-libiec61883 --enable-chromaprint --enable-frei0r --enable-libx264 --enable-shared
  libavutil      56. 22.100 / 56. 22.100
  libavcodec     58. 35.100 / 58. 35.100
  libavformat    58. 20.100 / 58. 20.100
  libavdevice    58.  5.100 / 58.  5.100
  libavfilter     7. 40.101 /  7. 40.101
  libavresample   4.  0.  0 /  4.  0.  0
  libswscale      5.  3.100 /  5.  3.100
  libswresample   3.  3.100 /  3.  3.100
  libpostproc    55.  3.100 / 55.  3.100
Input #0, lavfi, from 'anullsrc':
  Duration: N/A, start: 0.000000, bitrate: 705 kb/s
    Stream #0:0: Audio: pcm_u8, 44100 Hz, stereo, u8, 705 kb/s
Input #1, x11grab, from ':0.0':
  Duration: N/A, start: 1576541568.637799, bitrate: N/A
    Stream #1:0: Video: rawvideo (BGR[0] / 0x524742), bgr0, 720x480, 30 fps, 30 tbr, 1000k tbn, 1000k tbc
Stream mapping:
  Stream #1:0 -> #0:0 (rawvideo (native) -> flv1 (flv))
  Stream #0:0 -> #0:1 (pcm_u8 (native) -> mp3 (libmp3lame))
Press [q] to stop, [?] for help
Output #0, flv, to 'rtmp://a.rtmp.youtube.com/live2/628y-jagt-7b5c-4c9b':
  Metadata:
    encoder         : Lavf58.20.100
    Stream #0:0: Video: flv1 (flv) ([2][0][0][0] / 0x0002), yuv420p(progressive), 720x480, q=2-31, 200 kb/s, 30 fps, 1k tbn, 30 tbc
    Metadata:
      encoder         : Lavc58.35.100 flv
    Side data:
      cpb: bitrate max/min/avg: 0/0/200000 buffer size: 0 vbv_delay: -1
    Stream #0:1: Audio: mp3 (libmp3lame) ([2][0][0][0] / 0x0002), 44100 Hz, stereo, s16p
    Metadata:
      encoder         : Lavc58.35.100 libmp3lame
[x11grab @ 0x1019290] Thread message queue blocking; consider raising the thread_queue_size option (current value: 8)
frame=    3 fps=0.0 q=2.0 size=      86kB time=00:00:00.10 bitrate=6668.3kbits/s speed=0.181x    frame=    6 fps=5.2 q=6.5 size=     105kB time=00:00:00.52 bitrate=1635.1kbits/s speed=0.457x    frame=    8 fps=4.6 q=8.8 size=     106kB time=00:00:00.73 bitrate=1187.8kbits/s dup=0 drop=3 speed=0.425x    frame=   11 fps=4.9 q=12.1 size=     119kB time=00:00:01.23 bitrate= 790.5kbits/s dup=0 drop=3 speed=0.553x    frame=   14 fps=5.1 q=13.3 size=     147kB time=00:00:01.70 bitrate= 709.1kbits/s dup=0 drop=3 speed=0.617x    frame=   18 fps=5.3 q=14.4 size=     158kB time=00:00:02.23 bitrate= 579.1kbits/s dup=0 drop=3 speed=0.659x    frame=   23 fps=5.9 q=15.5 size=     177kB time=00:00:03.06 bitrate= 473.0kbits/s dup=0 drop=3 speed=0.781x    frame=   28 fps=6.3 q=16.1 size=     209kB time=00:00:03.90 bitrate= 438.4kbits/s dup=0 drop=3 speed=0.88x    frame=   31 fps=6.1 q=15.7 size=     219kB time=00:00:04.23 bitrate= 424.1kbits/s dup=0 drop=3 speed=0.835x    frame=   35 fps=6.1 q=14.0 size=     228kB time=00:00:04.57 bitrate= 407.7kbits/s dup=0 drop=3 speed=0.802x    frame=   38 fps=6.1 q=12.9 size=     255kB time=00:00:05.06 bitrate= 412.4kbits/s dup=0 drop=3 speed=0.817x    frame=   41 fps=6.1 q=14.4 size=     266kB time=00:00:05.53 bitrate= 394.0kbits/s dup=0 drop=3 speed=0.826x    frame=   44 fps=6.1 q=14.6 size=     278kB time=00:00:06.06 bitrate= 375.3kbits/s dup=0 drop=3 speed=0.841x    frame=   49 fps=6.3 q=11.6 size=     293kB time=00:00:06.86 bitrate= 349.2kbits/s dup=0 drop=3 speed=0.878x    frame=   52 fps=6.2 q=16.3 size=     318kB time=00:00:07.33 bitrate= 355.1kbits/s dup=0 drop=3 speed=0.881x    frame=   55 fps=6.2 q=15.1 size=     329kB time=00:00:07.83 bitrate= 344.0kbits/s dup=0 drop=3 speed=0.887x    frame=   59 fps=6.2 q=14.5 size=     339kB time=00:00:08.33 bitrate= 332.8kbits/s dup=0 drop=3 speed=0.882x    frame=   62 fps=6.2 q=16.2 size=     363kB time=00:00:08.80 bitrate= 338.0kbits/s dup=0 drop=3 speed=0.884x    frame=   65 fps=6.2 q=18.6 size=     376kB time=00:00:09.30 bitrate= 331.3kbits/s dup=0 drop=3 speed=0.889x    frame=   68 fps=6.2 q=18.0 size=     388kB time=00:00:09.79 bitrate= 324.6kbits/s dup=0 drop=3 speed=0.894x    frame=   72 fps=6.2 q=15.8 size=     400kB time=00:00:10.43 bitrate= 313.8kbits/s dup=0 drop=3 speed=0.899x    frame=   75 fps=6.2 q=15.9 size=     425kB time=00:00:10.93 bitrate= 318.6kbits/s dup=0 drop=3 speed=0.903x    frame=   78 fps=6.2 q=14.4 size=     436kB time=00:00:11.43 bitrate= 312.5kbits/s dup=0 drop=3 speed=0.907x    frame=   81 fps=6.2 q=13.1 size=     447kB time=00:00:11.93 bitrate= 306.9kbits/s dup=0 drop=3 speed=0.911x    frame=   84 fps=6.2 q=12.5 size=     458kB time=00:00:12.43 bitrate= 301.4kbits/s dup=0 drop=3 speed=0.913x    frame=   88 fps=6.2 q=12.9 size=     486kB time=00:00:13.10 bitrate= 303.9kbits/s dup=0 drop=3 speed=0.925x    frame=   93 fps=6.3 q=12.1 size=     503kB time=00:00:13.93 bitrate= 295.7kbits/s dup=0 drop=3 speed=0.946x    frame=   96 fps=6.3 q=12.0 size=     514kB time=00:00:14.43 bitrate= 291.9kbits/s dup=0 drop=3 speed=0.948x    frame=  100 fps=6.3 q=12.9 size=     542kB time=00:00:14.83 bitrate= 299.4kbits/s dup=0 drop=3 speed=0.935x    frame=  104 fps=6.3 q=10.9 size=     553kB time=00:00:15.36 bitrate= 294.9kbits/s dup=0 drop=3 speed=0.932x    frame=  107 fps=6.3 q=12.4 size=     563kB time=00:00:15.86 bitrate= 290.9kbits/s dup=0 drop=3 speed=0.934x    frame=  110 fps=6.3 q=13.0 size=     593kB time=00:00:16.38 bitrate= 296.8kbits/s dup=0 drop=3 speed=0.936x    frame=  114 fps=6.3 q=13.6 size=     604kB time=00:00:16.96 bitrate= 291.8kbits/s dup=0 drop=3 speed=0.942x    frame=  117 fps=6.3 q=13.9 size=     617kB time=00:00:17.46 bitrate= 289.4kbits/s dup=0 drop=3 speed=0.943x    frame=  120 fps=6.3 q=12.6 size=     626kB time=00:00:17.96 bitrate= 285.5kbits/s dup=0 drop=3 speed=0.945x    frame=  124 fps=6.3 q=12.1 size=     655kB time=00:00:18.50 bitrate= 289.9kbits/s dup=0 drop=3 speed=0.941x    frame=  128 fps=6.3 q=13.4 size=     669kB time=00:00:19.16 bitrate= 286.0kbits/s dup=0 drop=3 speed=0.944x    frame=  132 fps=6.3 q=13.2 size=     684kB time=00:00:19.83 bitrate= 282.3kbits/s dup=0 drop=3 speed=0.954x    frame=  135 fps=6.3 q=14.3 size=     709kB time=00:00:20.30 bitrate= 286.2kbits/s dup=0 drop=3 speed=0.952x    frame=  141 fps=6.5 q=12.8 size=     733kB time=00:00:21.29 bitrate= 282.1kbits/s dup=0 drop=3 speed=0.975x    frame=  147 fps=6.6 q=12.3 size=     767kB time=00:00:21.97 bitrate= 286.0kbits/s dup=0 drop=3 speed=0.982x    frame=  151 fps=6.6 q=10.9 size=     775kB time=00:00:22.30 bitrate= 284.6kbits/s dup=0 drop=3 speed=0.97x    frame=  155 fps=6.6 q=9.3 size=     783kB time=00:00:22.63 bitrate= 283.4kbits/s dup=0 drop=3 speed=0.959x    frame=  159 fps=6.6 q=12.2 size=     813kB time=00:00:23.16 bitrate= 287.5kbits/s dup=0 drop=3 speed=0.956x    frame=  163 fps=6.6 q=11.4 size=     826kB time=00:00:23.76 bitrate= 284.9kbits/s dup=0 drop=3 speed=0.956x    frame=  166 fps=6.5 q=11.9 size=     838kB time=00:00:24.23 bitrate= 283.3kbits/s dup=0 drop=3 speed=0.955x    frame=  171 fps=6.6 q=12.5 size=     872kB time=00:00:25.03 bitrate= 285.2kbits/s dup=0 drop=3 speed=0.963x    frame=  174 fps=6.6 q=15.5 size=     886kB time=00:00:25.53 bitrate= 284.4kbits/s dup=0 drop=3 speed=0.964x    frame=  178 fps=6.6 q=14.9 size=     900kB time=00:00:26.13 bitrate= 282.2kbits/s dup=0 drop=3 speed=0.964x    frame=  182 fps=6.6 q=12.7 size=     927kB time=00:00:26.63 bitrate= 285.2kbits/s dup=0 drop=3 speed=0.96x    frame=  185 fps=6.6 q=14.2 size=     942kB time=00:00:27.16 bitrate= 284.1kbits/s dup=0 drop=3 speed=0.962x    frame=  189 fps=6.5 q=12.5 size=     954kB time=00:00:27.73 bitrate= 281.7kbits/s dup=0 drop=3 speed=0.961x    frame=  194 fps=6.6 q=14.7 size=     987kB time=00:00:28.53 bitrate= 283.4kbits/s dup=0 drop=3 speed=0.97x    frame=  198 fps=6.6 q=13.7 size=    1002kB time=00:00:29.20 bitrate= 281.1kbits/s dup=0 drop=3 speed=0.976x    frame=  202 fps=6.6 q=11.5 size=    1015kB time=00:00:29.73 bitrate= 279.7kbits/s dup=0 drop=3 speed=0.977x    frame=  205 fps=6.6 q=9.4 size=    1023kB time=00:00:29.96 bitrate= 279.7kbits/s dup=0 drop=3 speed=0.966x    frame=  209 fps=6.6 q=10.8 size=    1052kB time=00:00:30.56 bitrate= 281.8kbits/s dup=0 drop=3 speed=0.966x    frame=  212 fps=6.6 q=11.4 size=    1064kB time=00:00:31.03 bitrate= 280.9kbits/s dup=0 drop=3 speed=0.965x    frame=  216 fps=6.6 q=11.0 size=    1077kB time=00:00:31.66 bitrate= 278.6kbits/s dup=0 drop=3 speed=0.966x    frame=  221 fps=6.6 q=10.8 size=    1112kB time=00:00:32.46 bitrate= 280.6kbits/s dup=0 drop=3 speed=0.975x    frame=  224 fps=6.6 q=10.4 size=    1125kB time=00:00:32.96 bitrate= 279.5kbits/s dup=0 drop=3 speed=0.975x    frame=  228 fps=6.6 q=10.0 size=    1137kB time=00:00:33.46 bitrate= 278.3kbits/s dup=0 drop=3 speed=0.972x    frame=  232 fps=6.6 q=10.1 size=    1166kB time=00:00:33.96 bitrate= 281.2kbits/s dup=0 drop=3 speed=0.969x    frame=  235 fps=6.6 q=10.0 size=    1179kB time=00:00:34.46 bitrate= 280.1kbits/s dup=0 drop=3 speed=0.969x    frame=  239 fps=6.6 q=9.8 size=    1191kB time=00:00:35.06 bitrate= 278.2kbits/s dup=0 drop=3 speed=0.969x    frame=  243 fps=6.6 q=9.8 size=    1224kB time=00:00:35.70 bitrate= 280.9kbits/s dup=0 drop=3 speed=0.972x    frame=  246 fps=6.6 q=9.9 size=    1237kB time=00:00:36.20 bitrate= 279.8kbits/s dup=0 drop=3 speed=0.972x    frame=  250 fps=6.6 q=9.7 size=    1250kB time=00:00:36.83 bitrate= 277.9kbits/s dup=0 drop=3 speed=0.973x    frame=  253 fps=6.6 q=10.6 size=    1266kB time=00:00:37.25 bitrate= 278.5kbits/s dup=0 drop=3 speed=0.971x    frame=  257 fps=6.6 q=15.2 size=    1295kB time=00:00:37.86 bitrate= 280.1kbits/s dup=0 drop=3 speed=0.971x    frame=  261 fps=6.6 q=12.5 size=    1310kB time=00:00:38.53 bitrate= 278.5kbits/s dup=0 drop=3 speed=0.975x    frame=  264 fps=6.6 q=12.1 size=    1322kB time=00:00:39.00 bitrate= 277.6kbits/s dup=0 drop=3 speed=0.973x    frame=  268 fps=6.6 q=11.9 size=    1354kB time=00:00:39.66 bitrate= 279.5kbits/s dup=0 drop=3 speed=0.975x    frame=  271 fps=6.6 q=10.9 size=    1366kB time=00:00:40.15 bitrate= 278.7kbits/s dup=0 drop=3 speed=0.975x    frame=  275 fps=6.6 q=10.1 size=    1378kB time=00:00:40.70 bitrate= 277.3kbits/s dup=0 drop=3 speed=0.973x    frame=  278 fps=6.6 q=10.9 size=    1408kB time=00:00:41.17 bitrate= 280.1kbits/s dup=0 drop=3 speed=0.973x    frame=  282 fps=6.6 q=10.1 size=    1422kB time=00:00:41.83 bitrate= 278.4kbits/s dup=0 drop=3 speed=0.974x    frame=  286 fps=6.6 q=9.1 size=    1436kB time=00:00:42.46 bitrate= 277.0kbits/s dup=0 drop=3 speed=0.976x    frame=  292 fps=6.6 q=10.1 size=    1477kB time=00:00:43.43 bitrate= 278.6kbits/s dup=0 drop=3 speed=0.987x    frame=  296 fps=6.6 q=9.4 size=    1492kB time=00:00:44.00 bitrate= 277.7kbits/s dup=0 drop=3 speed=0.985x    frame=  300 fps=6.6 q=7.6 size=    1501kB time=00:00:44.33 bitrate= 277.3kbits/s dup=0 drop=3 speed=0.979x    frame=  304 fps=6.6 q=9.9 size=    1540kB time=00:00:44.83 bitrate= 281.3kbits/s dup=0 drop=3 speed=0.977x    frame=  307 fps=6.6 q=10.8 size=    1551kB time=00:00:45.30 bitrate= 280.5kbits/s dup=0 drop=3 speed=0.976x    frame=  310 fps=6.6 q=16.7 size=    1573kB time=00:00:45.76 bitrate= 281.6kbits/s dup=0 drop=3 speed=0.976x    frame=  314 fps=6.6 q=13.9 size=    1602kB time=00:00:46.40 bitrate= 282.9kbits/s dup=0 drop=3 speed=0.978x    frame=  318 fps=6.6 q=12.7 size=    1619kB time=00:00:47.06 bitrate= 281.8kbits/s dup=0 drop=3 speed=0.981x    frame=  321 fps=6.6 q=12.4 size=    1633kB time=00:00:47.54 bitrate= 281.3kbits/s dup=0 drop=3 speed=0.98x    frame=  325 fps=6.6 q=8.5 size=    1644kB time=00:00:48.00 bitrate= 280.6kbits/s dup=0 drop=3 speed=0.977x    frame=  329 fps=6.6 q=10.5 size=    1675kB time=00:00:48.66 bitrate= 282.0kbits/s dup=0 drop=3 speed=0.981x    frame=  332 fps=6.6 q=11.0 size=    1687kB time=00:00:49.13 bitrate= 281.3kbits/s dup=0 drop=3 speed=0.978x    frame=  336 fps=6.6 q=10.5 size=    1702kB time=00:00:49.76 bitrate= 280.2kbits/s dup=0 drop=3 speed=0.981x    frame=  341 fps=6.6 q=10.5 size=    1741kB time=00:00:50.56 bitrate= 282.0kbits/s dup=0 drop=3 speed=0.985x    frame=  347 fps=6.7 q=9.9 size=    1764kB time=00:00:51.46 bitrate= 280.8kbits/s dup=0 drop=3 speed=0.993x    frame=  351 fps=6.7 q=9.9 size=    1792kB time=00:00:51.80 bitrate= 283.4kbits/s dup=0 drop=3 speed=0.99x    frame=  355 fps=6.7 q=9.0 size=    1801kB time=00:00:52.13 bitrate= 283.0kbits/s dup=0 drop=3 speed=0.985x    frame=  359 fps=6.7 q=8.4 size=    1811kB time=00:00:52.50 bitrate= 282.6kbits/s dup=0 drop=3 speed=0.98x    frame=  362 fps=6.7 q=9.6 size=    1842kB time=00:00:52.96 bitrate= 284.9kbits/s dup=0 drop=3 speed=0.98x    frame=  366 fps=6.7 q=9.2 size=    1856kB time=00:00:53.56 bitrate= 283.8kbits/s dup=0 drop=3 speed=0.979x    frame=  369 fps=6.7 q=9.0 size=    1867kB time=00:00:54.03 bitrate= 283.1kbits/s dup=0 drop=3 speed=0.979x    frame=  375 fps=6.7 q=9.0 size=    1910kB time=00:00:55.03 bitrate= 284.2kbits/s dup=0 drop=3 speed=0.988x    frame=  381 fps=6.8 q=8.7 size=    1931kB time=00:00:55.87 bitrate= 283.2kbits/s dup=0 drop=3 speed=0.994x    frame=  385 fps=6.8 q=6.5 size=    1941kB time=00:00:56.20 bitrate= 283.0kbits/s dup=0 drop=3 speed=0.989x    frame=  389 fps=6.8 q=9.4 size=    1974kB time=00:00:56.53 bitrate= 286.1kbits/s dup=0 drop=3 speed=0.984x    frame=  393 fps=6.8 q=8.3 size=    1984kB time=00:00:56.96 bitrate= 285.4kbits/s dup=0 drop=3 speed=0.981x    frame=  396 fps=6.8 q=9.0 size=    1997kB time=00:00:57.44 bitrate= 284.8kbits/s dup=0 drop=3 speed=0.981x    frame=  400 fps=6.8 q=9.1 size=    2030kB time=00:00:58.06 bitrate= 286.4kbits/s dup=0 drop=3 speed=0.983x    frame=  403 fps=6.8 q=8.9 size=    2042kB time=00:00:58.53 bitrate= 285.7kbits/s dup=0 drop=3 speed=0.981x    frame=  408 fps=6.8 q=9.8 size=    2062kB time=00:00:59.36 bitrate= 284.5kbits/s dup=0 drop=3 speed=0.986x    frame=  411 fps=6.8 q=10.5 size=    2093kB time=00:00:59.83 bitrate= 286.5kbits/s dup=0 drop=3 speed=0.985x    frame=  415 fps=6.8 q=9.5 size=    2106kB time=00:01:00.30 bitrate= 286.1kbits/s dup=0 drop=3 speed=0.982x    frame=  419 fps=6.8 q=9.9 size=    2119kB time=00:01:00.90 bitrate= 285.1kbits/s dup=0 drop=3 speed=0.982x    frame=  422 fps=6.8 q=10.6 size=    2150kB time=00:01:01.38 bitrate= 286.9kbits/s dup=0 drop=3 speed=0.982x    frame=  426 fps=6.7 q=9.3 size=    2164kB time=00:01:02.00 bitrate= 285.9kbits/s dup=0 drop=3 speed=0.982x    frame=  430 fps=6.7 q=9.5 size=    2179kB time=00:01:02.66 bitrate= 284.9kbits/s dup=0 drop=3 speed=0.984x    frame=  434 fps=6.8 q=9.3 size=    2214kB time=00:01:03.30 bitrate= 286.6kbits/s dup=0 drop=3 speed=0.986x    frame=  437 fps=6.7 q=9.2 size=    2227kB time=00:01:03.76 bitrate= 286.1kbits/s dup=0 drop=3 speed=0.983x    frame=  440 fps=6.7 q=9.2 size=    2241kB time=00:01:04.23 bitrate= 285.7kbits/s dup=0 drop=3 speed=0.983x    frame=  444 fps=6.7 q=9.3 size=    2253kB time=00:01:04.83 bitrate= 284.7kbits/s dup=0 drop=3 speed=0.983x    frame=  447 fps=6.7 q=9.4 size=    2284kB time=00:01:05.33 bitrate= 286.4kbits/s dup=0 drop=3 speed=0.983x    frame=  451 fps=6.7 q=11.5 size=    2301kB time=00:01:05.96 bitrate= 285.8kbits/s dup=0 drop=3 speed=0.984x    frame=  454 fps=6.7 q=11.4 size=    2314kB time=00:01:06.46 bitrate= 285.2kbits/s dup=0 drop=3 speed=0.984x    frame=  457 fps=6.7 q=7.8 size=    2328kB time=00:01:06.97 bitrate= 284.8kbits/s dup=0 drop=3 speed=0.985x    frame=  460 fps=6.7 q=15.1 size=    2359kB time=00:01:07.36 bitrate= 286.9kbits/s dup=0 drop=3 speed=0.983x    frame=  463 fps=6.7 q=20.5 size=    2377kB time=00:01:07.86 bitrate= 287.0kbits/s dup=0 drop=3 speed=0.983x    frame=  466 fps=6.7 q=22.4 size=    2400kB time=00:01:08.33 bitrate= 287.7kbits/s dup=0 drop=3 speed=0.983x    frame=  470 fps=6.7 q=16.6 size=    2429kB time=00:01:09.03 bitrate= 288.2kbits/s dup=0 drop=3 speed=0.984x    frame=  474 fps=6.7 q=12.3 size=    2448kB time=00:01:09.72 bitrate= 287.7kbits/s dup=0 drop=3 speed=0.987x    frame=  477 fps=6.7 q=12.7 size=    2459kB time=00:01:10.16 bitrate= 287.1kbits/s dup=0 drop=3 speed=0.986x    frame=  480 fps=6.7 q=13.5 size=    2473kB time=00:01:10.63 bitrate= 286.8kbits/s dup=0 drop=3 speed=0.985x    frame=  484 fps=6.7 q=13.0 size=    2501kB time=00:01:11.13 bitrate= 288.0kbits/s dup=0 drop=3 speed=0.984x    frame=  487 fps=6.7 q=11.1 size=    2514kB time=00:01:11.66 bitrate= 287.4kbits/s dup=0 drop=3 speed=0.984x    frame=  490 fps=6.7 q=10.9 size=    2527kB time=00:01:12.16 bitrate= 286.8kbits/s dup=0 drop=3 speed=0.984x    frame=  494 fps=6.7 q=10.3 size=    2561kB time=00:01:12.80 bitrate= 288.2kbits/s dup=0 drop=3 speed=0.986x    frame=  498 fps=6.7 q=9.9 size=    2577kB time=00:01:13.46 bitrate= 287.4kbits/s dup=0 drop=3 speed=0.987x    frame=  501 fps=6.7 q=9.5 size=    2590kB time=00:01:13.96 bitrate= 286.8kbits/s dup=0 drop=3 speed=0.987x    frame=  504 fps=6.7 q=9.5 size=    2603kB time=00:01:14.37 bitrate= 286.8kbits/s dup=0 drop=3 speed=0.986x    frame=  508 fps=6.7 q=10.4 size=    2636kB time=00:01:14.96 bitrate= 288.0kbits/s dup=0 drop=3 speed=0.987x    frame=  511 fps=6.7 q=9.6 size=    2648kB time=00:01:15.43 bitrate= 287.6kbits/s dup=0 drop=3 speed=0.985x    frame=  514 fps=6.7 q=9.5 size=    2662kB time=00:01:15.93 bitrate= 287.1kbits/s dup=0 drop=3 speed=0.985x    frame=  518 fps=6.7 q=9.5 size=    2695kB time=00:01:16.60 bitrate= 288.2kbits/s dup=0 drop=3 speed=0.986x    frame=  521 fps=6.7 q=9.4 size=    2708kB time=00:01:17.06 bitrate= 287.8kbits/s dup=0 drop=3 speed=0.986x    frame=  524 fps=6.7 q=9.4 size=    2720kB time=00:01:17.56 bitrate= 287.3kbits/s dup=0 drop=3 speed=0.986x    frame=  527 fps=6.7 q=9.1 size=    2732kB time=00:01:18.00 bitrate= 287.0kbits/s dup=0 drop=3 speed=0.985x    frame=  530 fps=6.7 q=9.0 size=    2764kB time=00:01:18.50 bitrate= 288.4kbits/s dup=0 drop=3 speed=0.985x    frame=  533 fps=6.6 q=9.0 size=    2777kB time=00:01:19.02 bitrate= 287.9kbits/s dup=0 drop=3 speed=0.986x    frame=  536 fps=6.6 q=10.2 size=    2790kB time=00:01:19.49 bitrate= 287.5kbits/s dup=0 drop=3 speed=0.985x    frame=  542 fps=6.7 q=11.0 size=    2830kB time=00:01:20.46 bitrate= 288.1kbits/s dup=0 drop=3 speed=0.991x    frame=  548 fps=6.7 q=10.8 size=    2856kB time=00:01:21.33 bitrate= 287.6kbits/s dup=0 drop=3 speed=0.996x    frame=  552 fps=6.7 q=9.7 size=    2866kB time=00:01:21.66 bitrate= 287.5kbits/s dup=0 drop=3 speed=0.992x    frame=  556 fps=6.7 q=8.7 size=    2896kB time=00:01:22.00 bitrate= 289.3kbits/s dup=0 drop=3 speed=0.989x    frame=  560 fps=6.7 q=10.4 size=    2910kB time=00:01:22.50 bitrate= 288.9kbits/s dup=0 drop=3 speed=0.987x    frame=  563 fps=6.7 q=11.3 size=    2923kB time=00:01:22.96 bitrate= 288.6kbits/s dup=0 drop=3 speed=0.987x    frame=  566 fps=6.7 q=11.0 size=    2952kB time=00:01:23.43 bitrate= 289.8kbits/s dup=0 drop=3 speed=0.986x    frame=  570 fps=6.7 q=9.9 size=    2967kB time=00:01:24.06 bitrate= 289.1kbits/s dup=0 drop=3 speed=0.987x    frame=  574 fps=6.7 q=9.9 size=    2985kB time=00:01:24.73 bitrate= 288.5kbits/s dup=0 drop=3 speed=0.988x    frame=  577 fps=6.7 q=7.8 size=    2997kB time=00:01:25.23 bitrate= 288.1kbits/s dup=0 drop=3 speed=0.988x    frame=  580 fps=6.7 q=9.3 size=    3027kB time=00:01:25.63 bitrate= 289.6kbits/s dup=0 drop=3 speed=0.987x    frame=  584 fps=6.7 q=9.9 size=    3041kB time=00:01:26.23 bitrate= 288.9kbits/s dup=0 drop=3 speed=0.989x    frame=  587 fps=6.7 q=9.3 size=    3054kB time=00:01:26.73 bitrate= 288.5kbits/s dup=0 drop=3 speed=0.989x    frame=  590 fps=6.7 q=9.4 size=    3085kB time=00:01:27.20 bitrate= 289.8kbits/s dup=0 drop=3 speed=0.988x    frame=  593 fps=6.7 q=9.5 size=    3098kB time=00:01:27.70 bitrate= 289.4kbits/s dup=0 drop=3 speed=0.988x    frame=  597 fps=6.7 q=9.8 size=    3115kB time=00:01:28.36 bitrate= 288.8kbits/s dup=0 drop=3 speed=0.989x    frame=  600 fps=6.7 q=9.2 size=    3128kB time=00:01:28.86 bitrate= 288.4kbits/s dup=0 drop=3 speed=0.989x    frame=  604 fps=6.7 q=10.0 size=    3163kB time=00:01:29.36 bitrate= 289.9kbits/s dup=0 drop=3 speed=0.987x    frame=  607 fps=6.7 q=9.4 size=    3175kB time=00:01:29.86 bitrate= 289.4kbits/s dup=0 drop=3 speed=0.987x    frame=  610 fps=6.7 q=9.5 size=    3188kB time=00:01:30.33 bitrate= 289.1kbits/s dup=0 drop=3 speed=0.987x    frame=  613 fps=6.7 q=7.3 size=    3201kB time=00:01:30.83 bitrate= 288.7kbits/s dup=0 drop=3 speed=0.987x    frame=  619 fps=6.7 q=9.1 size=    3246kB time=00:01:31.83 bitrate= 289.5kbits/s dup=0 drop=3 speed=0.992x    frame=  623 fps=6.7 q=8.9 size=    3262kB time=00:01:32.50 bitrate= 288.9kbits/s dup=0 drop=3 speed=0.992x    frame=  627 fps=6.7 q=9.3 size=    3296kB time=00:01:32.90 bitrate= 290.6kbits/s dup=0 drop=3 speed=0.991x    frame=  630 fps=6.7 q=7.6 size=    3303kB time=00:01:33.20 bitrate= 290.3kbits/s dup=0 drop=3 speed=0.988x    frame=  633 fps=6.7 q=8.9 size=    3317kB time=00:01:33.70 bitrate= 290.0kbits/s dup=0 drop=3 speed=0.988x    frame=  636 fps=6.7 q=9.9 size=    3330kB time=00:01:34.16 bitrate= 289.7kbits/s dup=0 drop=3 speed=0.988x    frame=  639 fps=6.7 q=10.8 size=    3359kB time=00:01:34.63 bitrate= 290.8kbits/s dup=0 drop=3 speed=0.987x    frame=  644 fps=6.7 q=11.0 size=    3382kB time=00:01:35.46 bitrate= 290.2kbits/s dup=0 drop=3 speed=0.991x    frame=  649 fps=6.7 q=9.3 size=    3407kB time=00:01:36.33 bitrate= 289.7kbits/s dup=0 drop=3 speed=0.993x    frame=  653 fps=6.7 q=11.0 size=    3437kB time=00:01:36.73 bitrate= 291.0kbits/s dup=0 drop=3 speed=0.991x    frame=  657 fps=6.7 q=10.4 size=    3450kB time=00:01:37.13 bitrate= 290.9kbits/s dup=0 drop=3 speed=0.989x    frame=  660 fps=6.7 q=9.8 size=    3464kB time=00:01:37.64 bitrate= 290.6kbits/s dup=0 drop=3 speed=0.989x    frame=  664 fps=6.7 q=9.2 size=    3495kB time=00:01:38.23 bitrate= 291.5kbits/s dup=0 drop=3 speed=0.989x    frame=  667 fps=6.7 q=10.9 size=    3509kB time=00:01:38.70 bitrate= 291.2kbits/s dup=0 drop=3 speed=0.988x    frame=  673 fps=6.7 q=14.6 size=    3555kB time=00:01:39.66 bitrate= 292.2kbits/s dup=0 drop=3 speed=0.993x    frame=  677 fps=6.7 q=14.5 size=    3583kB time=00:01:40.33 bitrate= 292.5kbits/s dup=0 drop=3 speed=0.994x    frame=  681 fps=6.7 q=12.1 size=    3598kB time=00:01:40.73 bitrate= 292.6kbits/s dup=0 drop=3 speed=0.992x    frame=  685 fps=6.7 q=6.9 size=    3610kB time=00:01:41.13 bitrate= 292.4kbits/s dup=0 drop=3 speed=0.99x    frame=  688 fps=6.7 q=10.7 size=    3640kB time=00:01:41.60 bitrate= 293.5kbits/s dup=0 drop=3 speed=0.989x    frame=  691 fps=6.7 q=10.2 size=    3655kB time=00:01:42.06 bitrate= 293.3kbits/s dup=0 drop=3 speed=0.989x    frame=  695 fps=6.7 q=10.8 size=    3671kB time=00:01:42.70 bitrate= 292.8kbits/s dup=0 drop=3 speed=0.99x    frame=  700 fps=6.7 q=9.2 size=    3709kB time=00:01:43.50 bitrate= 293.6kbits/s dup=0 drop=3 speed=0.993x    frame=  704 fps=6.7 q=9.3 size=    3726kB time=00:01:44.16 bitrate= 293.0kbits/s dup=0 drop=3 speed=0.994x    frame=  708 fps=6.7 q=8.3 size=    3739kB time=00:01:44.54 bitrate= 293.0kbits/s dup=0 drop=3 speed=0.992x    frame=  712 fps=6.7 q=7.7 size=    3772kB time=00:01:44.90 bitrate= 294.6kbits/s dup=0 drop=3 speed=0.99x    frame=  715 fps=6.7 q=8.3 size=    3787kB time=00:01:45.43 bitrate= 294.3kbits/s dup=0 drop=3 speed=0.99x    frame=  719 fps=6.7 q=8.7 size=    3800kB time=00:01:46.03 bitrate= 293.6kbits/s dup=0 drop=3 speed=0.99x    frame=  723 fps=6.7 q=9.2 size=    3836kB time=00:01:46.66 bitrate= 294.6kbits/s dup=0 drop=3 speed=0.991x    frame=  727 fps=6.7 q=11.8 size=    3857kB time=00:01:47.30 bitrate= 294.5kbits/s dup=0 drop=3 speed=0.992x    frame=  730 fps=6.7 q=12.2 size=    3873kB time=00:01:47.80 bitrate= 294.3kbits/s dup=0 drop=3 speed=0.992x    frame=  734 fps=6.7 q=13.6 size=    3905kB time=00:01:48.33 bitrate= 295.3kbits/s dup=0 drop=3 speed=0.991x    frame=  738 fps=6.7 q=10.1 size=    3918kB time=00:01:48.83 bitrate= 294.9kbits/s dup=0 drop=3 speed=0.99x    frame=  741 fps=6.7 q=10.3 size=    3931kB time=00:01:49.30 bitrate= 294.6kbits/s dup=0 drop=3 speed=0.989x    frame=  744 fps=6.7 q=10.2 size=    3945kB time=00:01:49.80 bitrate= 294.4kbits/s dup=0 drop=3 speed=0.989x    frame=  749 fps=6.7 q=9.1 size=    3982kB time=00:01:50.60 bitrate= 295.0kbits/s dup=0 drop=3 speed=0.992x    frame=  753 fps=6.7 q=8.9 size=    4000kB time=00:01:51.26 bitrate= 294.5kbits/s dup=0 drop=3 speed=0.993x    frame=  756 fps=6.7 q=8.4 size=    4012kB time=00:01:51.76 bitrate= 294.1kbits/s dup=0 drop=3 speed=0.993x    frame=  760 fps=6.7 q=7.7 size=    4043kB time=00:01:52.10 bitrate= 295.5kbits/s dup=0 drop=3 speed=0.991x    frame=  763 fps=6.7 q=8.5 size=    4056kB time=00:01:52.53 bitrate= 295.2kbits/s dup=0 drop=3 speed=0.99x    frame=  766 fps=6.7 q=8.3 size=    4070kB time=00:01:53.05 bitrate= 294.9kbits/s dup=0 drop=3 speed=0.99x    frame=  770 fps=6.7 q=8.7 size=    4103kB time=00:01:53.63 bitrate= 295.8kbits/s dup=0 drop=3 speed=0.991x    frame=  773 fps=6.7 q=8.0 size=    4115kB time=00:01:54.13 bitrate= 295.4kbits/s dup=0 drop=3 speed=0.991x    frame=  778 fps=6.7 q=7.8 size=    4135kB time=00:01:54.96 bitrate= 294.6kbits/s dup=0 drop=3 speed=0.994x    frame=  781 fps=6.7 q=5.9 size=    4148kB time=00:01:55.46 bitrate= 294.3kbits/s dup=0 drop=3 speed=0.993x    frame=  784 fps=6.7 q=8.4 size=    4182kB time=00:01:55.77 bitrate= 295.9kbits/s dup=0 drop=3 speed=0.992x    frame=  787 fps=6.7 q=6.8 size=    4188kB time=00:01:56.03 bitrate= 295.7kbits/s dup=0 drop=3 speed=0.99x    frame=  790 fps=6.7 q=8.1 size=    4200kB time=00:01:56.53 bitrate= 295.3kbits/s dup=0 drop=3 speed=0.99x    frame=  793 fps=6.7 q=6.8 size=    4213kB time=00:01:57.03 bitrate= 294.9kbits/s dup=0 drop=3 speed=0.989x    frame=  796 fps=6.7 q=8.4 size=    4246kB time=00:01:57.53 bitrate= 295.9kbits/s dup=0 drop=3 speed=0.989x    frame=  801 fps=6.7 q=8.1 size=    4267kB time=00:01:58.43 bitrate= 295.2kbits/s dup=0 drop=3 speed=0.992x    frame=  804 fps=6.7 q=7.8 size=    4280kB time=00:01:58.93 bitrate= 294.8kbits/s dup=0 drop=3 speed=0.992x    frame=  807 fps=6.7 q=8.1 size=    4316kB time=00:01:59.40 bitrate= 296.1kbits/s dup=0 drop=3 speed=0.991x    frame=  810 fps=6.7 q=7.6 size=    4327kB time=00:01:59.74 bitrate= 296.0kbits/s dup=0 drop=3 speed=0.99x    frame=  813 fps=6.7 q=8.0 size=    4336kB time=00:02:00.20 bitrate= 295.5kbits/s dup=0 drop=3 speed=0.99x    frame=  816 fps=6.7 q=8.4 size=    4350kB time=00:02:00.73 bitrate= 295.2kbits/s dup=0 drop=3 speed=0.99x    frame=  819 fps=6.7 q=8.6 size=    4382kB time=00:02:01.23 bitrate= 296.1kbits/s dup=0 drop=3 speed=0.99x    frame=  823 fps=6.7 q=8.0 size=    4400kB time=00:02:01.93 bitrate= 295.6kbits/s dup=0 drop=3 speed=0.991x    frame=  826 fps=6.7 q=8.1 size=    4413kB time=00:02:02.46 bitrate= 295.2kbits/s dup=0 drop=3 speed=0.991x    frame=  829 fps=6.7 q=6.9 size=    4427kB time=00:02:02.96 bitrate= 294.9kbits/s dup=0 drop=3 speed=0.991x    frame=  832 fps=6.7 q=8.7 size=    4457kB time=00:02:03.30 bitrate= 296.1kbits/s dup=0 drop=3 speed=0.99x    frame=  835 fps=6.7 q=10.0 size=    4473kB time=00:02:03.83 bitrate= 295.9kbits/s dup=0 drop=3 speed=0.99x    frame=  838 fps=6.7 q=10.1 size=    4485kB time=00:02:04.36 bitrate= 295.5kbits/s dup=0 drop=3 speed=0.99x    frame=  842 fps=6.7 q=13.8 size=    4518kB time=00:02:05.03 bitrate= 296.0kbits/s dup=0 drop=3 speed=0.991x    frame=  845 fps=6.7 q=17.8 size=    4549kB time=00:02:05.56 bitrate= 296.8kbits/s dup=0 drop=3 speed=0.991x    frame=  848 fps=6.7 q=19.2 size=    4568kB time=00:02:06.10 bitrate= 296.8kbits/s dup=0 drop=3 speed=0.991x    frame=  851 fps=6.7 q=22.3 size=    4595kB time=00:02:06.56 bitrate= 297.4kbits/s dup=0 drop=3 speed=0.99x    frame=  854 fps=6.6 q=26.1 size=    4628kB time=00:02:07.03 bitrate= 298.4kbits/s dup=0 drop=3 speed=0.989x    frame=  857 fps=6.6 q=28.8 size=    4657kB time=00:02:07.56 bitrate= 299.0kbits/s dup=0 drop=3 speed=0.989x    frame=  860 fps=6.6 q=29.7 size=    4679kB time=00:02:08.13 bitrate= 299.1kbits/s dup=0 drop=3 speed=0.989x    frame=  864 fps=6.6 q=31.0 size=    4709kB time=00:02:08.90 bitrate= 299.3kbits/s dup=0 drop=3 speed=0.99x    frame=  867 fps=6.6 q=25.9 size=    4734kB time=00:02:09.53 bitrate= 299.4kbits/s dup=0 drop=3 speed=0.991x    frame=  870 fps=6.6 q=21.3 size=    4753kB time=00:02:10.06 bitrate= 299.4kbits/s dup=0 drop=3 speed=0.992x    frame=  873 fps=6.6 q=23.3 size=    4774kB time=00:02:10.46 bitrate= 299.7kbits/s dup=0 drop=3 speed=0.991x    frame=  876 fps=6.6 q=24.3 size=    4793kB time=00:02:10.96 bitrate= 299.8kbits/s dup=0 drop=3 speed=0.991x    frame=  880 fps=6.6 q=18.1 size=    4822kB time=00:02:11.63 bitrate= 300.1kbits/s dup=0 drop=3 speed=0.992x    frame=  883 fps=6.6 q=16.1 size=    4838kB time=00:02:12.16 bitrate= 299.9kbits/s dup=0 drop=3 speed=0.992x    frame=  889 fps=6.6 q=13.2 size=    4870kB time=00:02:13.13 bitrate= 299.7kbits/s dup=0 drop=3 speed=0.996x    frame=  892 fps=6.6 q=12.8 size=    4896kB time=00:02:13.56 bitrate= 300.3kbits/s dup=0 drop=3 speed=0.995x    frame=  896 fps=6.6 q=16.3 size=    4916kB time=00:02:13.93 bitrate= 300.7kbits/s dup=0 drop=3 speed=0.994x    frame=  899 fps=6.6 q=11.2 size=    4924kB time=00:02:14.30 bitrate= 300.4kbits/s dup=0 drop=3 speed=0.992x    frame=  902 fps=6.6 q=11.6 size=    4951kB time=00:02:14.76 bitrate= 301.0kbits/s dup=0 drop=3 speed=0.991x    frame=  905 fps=6.6 q=12.3 size=    4967kB time=00:02:15.26 bitrate= 300.8kbits/s dup=0 drop=3 speed=0.991x    frame=  909 fps=6.6 q=11.5 size=    4983kB time=00:02:15.90 bitrate= 300.3kbits/s dup=0 drop=3 speed=0.992x    frame=  914 fps=6.6 q=9.7 size=    5022kB time=00:02:16.73 bitrate= 300.9kbits/s dup=0 drop=3 speed=0.994x    frame=  917 fps=6.6 q=9.0 size=    5034kB time=00:02:17.23 bitrate= 300.5kbits/s dup=0 drop=3 speed=0.994x    frame=  921 fps=6.6 q=9.5 size=    5048kB time=00:02:17.63 bitrate= 300.4kbits/s dup=0 drop=3 speed=0.992x    frame=  925 fps=6.6 q=7.6 size=    5060kB time=00:02:18.16 bitrate= 300.0kbits/s dup=0 drop=3 speed=0.992x    frame=  928 fps=6.6 q=9.3 size=    5090kB time=00:02:18.66 bitrate= 300.7kbits/s dup=0 drop=3 speed=0.992x    frame=  931 fps=6.6 q=11.6 size=    5106kB time=00:02:19.13 bitrate= 300.6kbits/s dup=0 drop=3 speed=0.992x    frame=  935 fps=6.6 q=10.0 size=    5122kB time=00:02:19.80 bitrate= 300.2kbits/s dup=0 drop=3 speed=0.992x    frame=  938 fps=6.6 q=9.9 size=    5153kB time=00:02:20.30 bitrate= 300.9kbits/s dup=0 drop=3 speed=0.992x    frame=  941 fps=6.6 q=9.5 size=    5166kB time=00:02:20.80 bitrate= 300.6kbits/s dup=0 drop=3 speed=0.992x    frame=  944 fps=6.6 q=8.8 size=    5180kB time=00:02:21.27 bitrate= 300.4kbits/s dup=0 drop=3 speed=0.992x    frame=  947 fps=6.6 q=8.9 size=    5193kB time=00:02:21.76 bitrate= 300.1kbits/s dup=0 drop=3 speed=0.992x    frame=  950 fps=6.6 q=8.3 size=    5223kB time=00:02:22.23 bitrate= 300.8kbits/s dup=0 drop=3 speed=0.992x    frame=  954 fps=6.6 q=8.6 size=    5238kB time=00:02:22.90 bitrate= 300.3kbits/s dup=0 drop=3 speed=0.993x    frame=  958 fps=6.6 q=8.6 size=    5255kB time=00:02:23.56 bitrate= 299.9kbits/s dup=0 drop=3 speed=0.994x    frame=  961 fps=6.6 q=6.5 size=    5268kB time=00:02:24.06 bitrate= 299.6kbits/s dup=0 drop=3 speed=0.994x    frame=  964 fps=6.6 q=8.9 size=    5300kB time=00:02:24.56 bitrate= 300.3kbits/s dup=0 drop=3 speed=0.994x    frame=  968 fps=6.6 q=7.9 size=    5313kB time=00:02:24.96 bitrate= 300.2kbits/s dup=0 drop=3 speed=0.992x    frame=  971 fps=6.6 q=8.3 size=    5325kB time=00:02:25.46 bitrate= 299.9kbits/s dup=0 drop=3 speed=0.992x    frame=  974 fps=6.6 q=8.4 size=    5358kB time=00:02:25.96 bitrate= 300.7kbits/s dup=0 drop=3 speed=0.992x    frame=  977 fps=6.6 q=8.0 size=    5369kB time=00:02:26.43 bitrate= 300.4kbits/s dup=0 drop=3 speed=0.992x    frame=  983 fps=6.6 q=7.9 size=    5394kB time=00:02:27.43 bitrate= 299.7kbits/s dup=0 drop=3 speed=0.995x    frame=  988 fps=6.6 q=8.0 size=    5437kB time=00:02:28.23 bitrate= 300.5kbits/s dup=0 drop=3 speed=0.996x    frame=  992 fps=6.6 q=7.6 size=    5449kB time=00:02:28.56 bitrate= 300.5kbits/s dup=0 drop=3 speed=0.994x    frame=  996 fps=6.6 q=7.3 size=    5460kB time=00:02:28.96 bitrate= 300.2kbits/s dup=0 drop=3 speed=0.993x    frame=  999 fps=6.6 q=8.1 size=    5495kB time=00:02:29.43 bitrate= 301.2kbits/s dup=0 drop=3 speed=0.992x    frame= 1002 fps=6.6 q=8.0 size=    5507kB time=00:02:29.93 bitrate= 300.9kbits/s dup=0 drop=3 speed=0.992x    frame= 1005 fps=6.6 q=7.8 size=    5519kB time=00:02:30.40 bitrate= 300.6kbits/s dup=0 drop=3 speed=0.992x    frame= 1010 fps=6.6 q=7.7 size=    5561kB time=00:02:31.23 bitrate= 301.2kbits/s dup=0 drop=3 speed=0.994x    frame= 1016 fps=6.7 q=7.8 size=    5586kB time=00:02:32.23 bitrate= 300.6kbits/s dup=0 drop=3 speed=0.997x    frame= 1020 fps=6.7 q=7.6 size=    5599kB time=00:02:32.60 bitrate= 300.5kbits/s dup=0 drop=3 speed=0.996x    frame= 1024 fps=6.7 q=7.5 size=    5631kB time=00:02:32.93 bitrate= 301.7kbits/s dup=0 drop=3 speed=0.994x    frame= 1028 fps=6.7 q=7.6 size=    5643kB time=00:02:33.36 bitrate= 301.4kbits/s dup=0 drop=3 speed=0.993x    frame= 1031 fps=6.7 q=8.3 size=    5656kB time=00:02:33.83 bitrate= 301.2kbits/s dup=0 drop=3 speed=0.993x    frame= 1034 fps=6.7 q=8.4 size=    5691kB time=00:02:34.30 bitrate= 302.1kbits/s dup=0 drop=3 speed=0.992x    frame= 1037 fps=6.6 q=9.5 size=    5705kB time=00:02:34.80 bitrate= 301.9kbits/s dup=0 drop=3 speed=0.992x    frame= 1041 fps=6.6 q=9.3 size=    5722kB time=00:02:35.46 bitrate= 301.5kbits/s dup=0 drop=3 speed=0.993x    frame= 1044 fps=6.6 q=9.0 size=    5735kB time=00:02:35.96 bitrate= 301.2kbits/s dup=0 drop=3 speed=0.993x    frame= 1047 fps=6.6 q=8.8 size=    5767kB time=00:02:36.46 bitrate= 301.9kbits/s dup=0 drop=3 speed=0.993x    frame= 1050 fps=6.6 q=8.3 size=    5778kB time=00:02:36.86 bitrate= 301.7kbits/s dup=0 drop=3 speed=0.993x    frame= 1053 fps=6.6 q=8.3 size=    5792kB time=00:02:37.36 bitrate= 301.5kbits/s dup=0 drop=3 speed=0.993x    frame= 1056 fps=6.6 q=8.3 size=    5805kB time=00:02:37.88 bitrate= 301.2kbits/s dup=0 drop=3 speed=0.993x    frame= 1060 fps=6.6 q=8.2 size=    5839kB time=00:02:38.53 bitrate= 301.7kbits/s dup=0 drop=3 speed=0.993x    frame= 1065 fps=6.7 q=7.5 size=    5860kB time=00:02:39.36 bitrate= 301.2kbits/s dup=0 drop=3 speed=0.995x    frame= 1068 fps=6.6 q=7.2 size=    5872kB time=00:02:39.86 bitrate= 300.9kbits/s dup=0 drop=3 speed=0.995x    frame= 1072 fps=6.6 q=6.7 size=    5911kB time=00:02:40.23 bitrate= 302.2kbits/s dup=0 drop=3 speed=0.994x    frame= 1075 fps=6.6 q=6.9 size=    5920kB time=00:02:40.63 bitrate= 301.9kbits/s dup=0 drop=3 speed=0.993x    frame= 1078 fps=6.6 q=7.8 size=    5933kB time=00:02:41.13 bitrate= 301.6kbits/s dup=0 drop=3 speed=0.993x    frame= 1081 fps=6.6 q=7.4 size=    5948kB time=00:02:41.60 bitrate= 301.5kbits/s dup=0 drop=3 speed=0.992x    frame= 1085 fps=6.6 q=9.4 size=    5985kB time=00:02:42.30 bitrate= 302.1kbits/s dup=0 drop=3 speed=0.993x    frame= 1088 fps=6.6 q=9.3 size=    6001kB time=00:02:42.84 bitrate= 301.9kbits/s dup=0 drop=3 speed=0.994x    frame= 1092 fps=6.6 q=8.6 size=    6016kB time=00:02:43.50 bitrate= 301.4kbits/s dup=0 drop=3 speed=0.994x    frame= 1096 fps=6.6 q=8.8 size=    6052kB time=00:02:44.06 bitrate= 302.2kbits/s dup=0 drop=3 speed=0.994x    frame= 1099 fps=6.6 q=8.6 size=    6064kB time=00:02:44.53 bitrate= 301.9kbits/s dup=0 drop=3 speed=0.993x    frame= 1102 fps=6.6 q=8.3 size=    6077kB time=00:02:45.03 bitrate= 301.7kbits/s dup=0 drop=3 speed=0.993x    ffmpeg version 4.1.4-1+rpt1~deb10u1 Copyright (c) 2000-2019 the FFmpeg developers
  built with gcc 8 (Raspbian 8.3.0-6+rpi1)
  configuration: --prefix=/usr --extra-version='1+rpt1~deb10u1' --toolchain=hardened --libdir=/usr/lib/arm-linux-gnueabihf --incdir=/usr/include/arm-linux-gnueabihf --arch=arm --enable-gpl --disable-stripping --enable-avresample --disable-filter=resample --enable-avisynth --enable-gnutls --enable-ladspa --enable-libaom --enable-libass --enable-libbluray --enable-libbs2b --enable-libcaca --enable-libcdio --enable-libcodec2 --enable-libflite --enable-libfontconfig --enable-libfreetype --enable-libfribidi --enable-libgme --enable-libgsm --enable-libjack --enable-libmp3lame --enable-libmysofa --enable-libopenjpeg --enable-libopenmpt --enable-libopus --enable-libpulse --enable-librsvg --enable-librubberband --enable-libshine --enable-libsnappy --enable-libsoxr --enable-libspeex --enable-libssh --enable-libtheora --enable-libtwolame --enable-libvidstab --enable-libvorbis --enable-libvpx --enable-libwavpack --enable-libwebp --enable-libx265 --enable-libxml2 --enable-libxvid --enable-libzmq --enable-libzvbi --enable-lv2 --enable-omx --enable-openal --enable-opengl --enable-sdl2 --enable-omx-rpi --enable-mmal --enable-libdc1394 --enable-libdrm --enable-libiec61883 --enable-chromaprint --enable-frei0r --enable-libx264 --enable-shared
  libavutil      56. 22.100 / 56. 22.100
  libavcodec     58. 35.100 / 58. 35.100
  libavformat    58. 20.100 / 58. 20.100
  libavdevice    58.  5.100 / 58.  5.100
  libavfilter     7. 40.101 /  7. 40.101
  libavresample   4.  0.  0 /  4.  0.  0
  libswscale      5.  3.100 /  5.  3.100
  libswresample   3.  3.100 /  3.  3.100
  libpostproc    55.  3.100 / 55.  3.100
Input #0, lavfi, from 'anullsrc':
  Duration: N/A, start: 0.000000, bitrate: 705 kb/s
    Stream #0:0: Audio: pcm_u8, 44100 Hz, stereo, u8, 705 kb/s
Input #1, x11grab, from ':0.0':
  Duration: N/A, start: 1576541786.506533, bitrate: N/A
    Stream #1:0: Video: rawvideo (BGR[0] / 0x524742), bgr0, 720x480, 30 fps, 29.97 tbr, 1000k tbn, 1000k tbc
Stream mapping:
  Stream #1:0 -> #0:0 (rawvideo (native) -> flv1 (flv))
  Stream #0:0 -> #0:1 (pcm_u8 (native) -> mp3 (libmp3lame))
Press [q] to stop, [?] for help
Output #0, flv, to 'rtmp://a.rtmp.youtube.com/live2/628y-jagt-7b5c-4c9b':
  Metadata:
    encoder         : Lavf58.20.100
    Stream #0:0: Video: flv1 (flv) ([2][0][0][0] / 0x0002), yuv420p(progressive), 720x480, q=2-31, 200 kb/s, 29.97 fps, 1k tbn, 29.97 tbc
    Metadata:
      encoder         : Lavc58.35.100 flv
    Side data:
      cpb: bitrate max/min/avg: 0/0/200000 buffer size: 0 vbv_delay: -1
    Stream #0:1: Audio: mp3 (libmp3lame) ([2][0][0][0] / 0x0002), 44100 Hz, stereo, s16p
    Metadata:
      encoder         : Lavc58.35.100 libmp3lame
[x11grab @ 0xb68290] Thread message queue blocking; consider raising the thread_queue_size option (current value: 8)
frame=    4 fps=0.0 q=2.0 size=      58kB time=00:00:00.10 bitrate=4475.2kbits/s speed=0.192x    frame=    9 fps=8.4 q=7.2 size=     101kB time=00:00:00.76 bitrate=1079.7kbits/s dup=0 drop=2 speed=0.714x    frame=   16 fps=9.9 q=10.4 size=     138kB time=00:00:01.36 bitrate= 826.0kbits/s dup=0 drop=2 speed=0.848x    frame=   22 fps=9.8 q=9.3 size=     150kB time=00:00:01.80 bitrate= 681.1kbits/s dup=0 drop=2 speed=0.801x    frame=   26 fps=9.2 q=12.4 size=     177kB time=00:00:02.10 bitrate= 687.8kbits/s dup=0 drop=2 speed=0.74x    frame=   30 fps=8.7 q=11.1 size=     184kB time=00:00:02.43 bitrate= 619.1kbits/s dup=0 drop=2 speed=0.71x    frame=   34 fps=8.4 q=12.1 size=     197kB time=00:00:03.03 bitrate= 531.4kbits/s dup=0 drop=2 speed=0.75x    frame=   38 fps=8.1 q=11.5 size=     228kB time=00:00:03.63 bitrate= 512.9kbits/s dup=0 drop=2 speed=0.778x    frame=   42 fps=8.0 q=14.4 size=     242kB time=00:00:04.23 bitrate= 468.2kbits/s dup=0 drop=2 speed=0.806x    frame=   49 fps=8.5 q=8.5 size=     264kB time=00:00:05.34 bitrate= 404.4kbits/s dup=0 drop=2 speed=0.927x    frame=   52 fps=8.2 q=16.7 size=     292kB time=00:00:05.74 bitrate= 417.1kbits/s dup=0 drop=2 speed= 0.9x    frame=   56 fps=8.0 q=23.3 size=     305kB time=00:00:06.07 bitrate= 411.5kbits/s dup=0 drop=2 speed=0.871x    frame=   60 fps=7.9 q=19.4 size=     315kB time=00:00:06.57 bitrate= 392.6kbits/s dup=0 drop=2 speed=0.87x    frame=   64 fps=7.8 q=20.6 size=     341kB time=00:00:07.17 bitrate= 389.9kbits/s dup=0 drop=2 speed=0.878x    frame=   68 fps=7.7 q=22.9 size=     356kB time=00:00:07.74 bitrate= 377.0kbits/s dup=0 drop=2 speed=0.88x    frame=   73 fps=7.8 q=13.2 size=     372kB time=00:00:08.54 bitrate= 356.9kbits/s dup=0 drop=2 speed=0.916x    frame=   79 fps=8.0 q=21.2 size=     406kB time=00:00:09.44 bitrate= 352.4kbits/s dup=0 drop=2 speed=0.961x    frame=   83 fps=8.0 q=25.0 size=     419kB time=00:00:09.81 bitrate= 349.7kbits/s dup=0 drop=2 speed=0.941x    frame=   87 fps=7.9 q=22.1 size=     439kB time=00:00:10.14 bitrate= 354.5kbits/s dup=0 drop=2 speed=0.917x    frame=   91 fps=7.8 q=20.0 size=     449kB time=00:00:10.64 bitrate= 345.8kbits/s dup=0 drop=2 speed=0.911x    frame=   94 fps=7.7 q=22.0 size=     462kB time=00:00:11.10 bitrate= 340.6kbits/s dup=0 drop=2 speed=0.911x    frame=   97 fps=7.6 q=15.1 size=     471kB time=00:00:11.54 bitrate= 334.4kbits/s dup=0 drop=2 speed=0.91x    frame=  101 fps=7.6 q=20.9 size=     496kB time=00:00:12.18 bitrate= 333.8kbits/s dup=0 drop=2 speed=0.921x    frame=  106 fps=7.6 q=17.1 size=     514kB time=00:00:13.01 bitrate= 323.2kbits/s dup=0 drop=2 speed=0.939x    frame=  109 fps=7.6 q=13.8 size=     525kB time=00:00:13.51 bitrate= 318.0kbits/s dup=0 drop=2 speed=0.941x    frame=  113 fps=7.5 q=17.2 size=     548kB time=00:00:13.88 bitrate= 323.4kbits/s dup=0 drop=2 speed=0.926x    frame=  116 fps=7.5 q=15.7 size=     559kB time=00:00:14.39 bitrate= 317.9kbits/s dup=0 drop=2 speed=0.929x    frame=  120 fps=7.5 q=16.2 size=     570kB time=00:00:15.04 bitrate= 310.5kbits/s dup=0 drop=2 speed=0.941x    frame=  123 fps=7.4 q=15.2 size=     594kB time=00:00:15.48 bitrate= 314.4kbits/s dup=0 drop=2 speed=0.931x    frame=  128 fps=7.4 q=15.2 size=     611kB time=00:00:16.31 bitrate= 306.8kbits/s dup=0 drop=2 speed=0.945x    frame=  131 fps=7.4 q=15.6 size=     623kB time=00:00:16.81 bitrate= 303.5kbits/s dup=0 drop=2 speed=0.947x    frame=  134 fps=7.3 q=14.1 size=     648kB time=00:00:17.29 bitrate= 306.9kbits/s dup=0 drop=2 speed=0.947x    frame=  138 fps=7.3 q=14.6 size=     657kB time=00:00:17.78 bitrate= 302.7kbits/s dup=0 drop=2 speed=0.941x    frame=  141 fps=7.3 q=13.9 size=     668kB time=00:00:18.25 bitrate= 299.9kbits/s dup=0 drop=2 speed=0.941x    frame=  144 fps=7.2 q=13.6 size=     679kB time=00:00:18.75 bitrate= 296.5kbits/s dup=0 drop=2 speed=0.943x    frame=  148 fps=7.2 q=14.2 size=     708kB time=00:00:19.38 bitrate= 299.3kbits/s dup=0 drop=2 speed=0.949x    frame=  153 fps=7.3 q=13.7 size=     726kB time=00:00:20.22 bitrate= 293.9kbits/s dup=0 drop=2 speed=0.96x    frame=  156 fps=7.2 q=12.6 size=     737kB time=00:00:20.72 bitrate= 291.2kbits/s dup=0 drop=2 speed=0.961x    frame=  160 fps=7.2 q=15.0 size=     763kB time=00:00:21.08 bitrate= 296.6kbits/s dup=0 drop=2 speed=0.949x    frame=  163 fps=7.2 q=19.2 size=     776kB time=00:00:21.58 bitrate= 294.5kbits/s dup=0 drop=2 speed=0.95x    frame=  167 fps=7.2 q=15.6 size=     789kB time=00:00:22.25 bitrate= 290.4kbits/s dup=0 drop=2 speed=0.953x    frame=  170 fps=7.1 q=15.4 size=     814kB time=00:00:22.72 bitrate= 293.4kbits/s dup=0 drop=2 speed=0.953x    frame=  174 fps=7.1 q=14.2 size=     828kB time=00:00:23.35 bitrate= 290.4kbits/s dup=0 drop=2 speed=0.956x    frame=  177 fps=7.1 q=13.6 size=     838kB time=00:00:23.85 bitrate= 287.8kbits/s dup=0 drop=2 speed=0.957x    frame=  180 fps=7.1 q=13.8 size=     850kB time=00:00:24.35 bitrate= 285.9kbits/s dup=0 drop=2 speed=0.958x    frame=  183 fps=7.1 q=14.4 size=     875kB time=00:00:24.75 bitrate= 289.6kbits/s dup=0 drop=2 speed=0.954x    frame=  186 fps=7.0 q=13.6 size=     887kB time=00:00:25.26 bitrate= 287.6kbits/s dup=0 drop=2 speed=0.955x    frame=  189 fps=7.0 q=12.7 size=     897kB time=00:00:25.79 bitrate= 284.8kbits/s dup=0 drop=2 speed=0.957x    frame=  193 fps=7.0 q=10.4 size=     911kB time=00:00:26.42 bitrate= 282.4kbits/s dup=0 drop=2 speed=0.961x    frame=  196 fps=7.0 q=12.8 size=     938kB time=00:00:26.92 bitrate= 285.2kbits/s dup=0 drop=2 speed=0.961x    frame=  199 fps=7.0 q=11.6 size=     949kB time=00:00:27.46 bitrate= 282.9kbits/s dup=0 drop=2 speed=0.963x    frame=  202 fps=7.0 q=11.5 size=     959kB time=00:00:27.92 bitrate= 281.4kbits/s dup=0 drop=2 speed=0.962x    frame=  205 fps=6.9 q=10.3 size=     970kB time=00:00:28.36 bitrate= 280.3kbits/s dup=0 drop=2 speed=0.96x    frame=  208 fps=6.9 q=14.8 size=     996kB time=00:00:28.86 bitrate= 282.7kbits/s dup=0 drop=2 speed=0.961x    frame=  211 fps=6.9 q=15.5 size=    1009kB time=00:00:29.36 bitrate= 281.4kbits/s dup=0 drop=2 speed=0.962x    frame=  216 fps=6.9 q=13.3 size=    1027kB time=00:00:30.19 bitrate= 278.7kbits/s dup=0 drop=2 speed=0.971x    frame=  221 fps=7.0 q=13.3 size=    1061kB time=00:00:31.03 bitrate= 280.2kbits/s dup=0 drop=2 speed=0.982x    frame=  224 fps=7.0 q=12.3 size=    1072kB time=00:00:31.43 bitrate= 279.5kbits/s dup=0 drop=2 speed=0.979x    frame=  228 fps=7.0 q=12.4 size=    1082kB time=00:00:31.76 bitrate= 279.1kbits/s dup=0 drop=2 speed=0.97x    frame=  232 fps=7.0 q=12.2 size=    1108kB time=00:00:32.30 bitrate= 281.0kbits/s dup=0 drop=2 speed=0.972x    frame=  235 fps=7.0 q=13.9 size=    1120kB time=00:00:32.76 bitrate= 279.9kbits/s dup=0 drop=2 speed=0.971x    frame=  238 fps=6.9 q=14.1 size=    1132kB time=00:00:33.23 bitrate= 278.9kbits/s dup=0 drop=2 speed=0.967x    frame=  242 fps=6.9 q=13.4 size=    1162kB time=00:00:33.90 bitrate= 280.7kbits/s dup=0 drop=2 speed=0.971x    frame=  247 fps=7.0 q=11.8 size=    1180kB time=00:00:34.73 bitrate= 278.4kbits/s dup=0 drop=2 speed=0.978x    frame=  250 fps=6.9 q=11.4 size=    1191kB time=00:00:35.23 bitrate= 277.0kbits/s dup=0 drop=2 speed=0.978x    frame=  254 fps=7.0 q=11.1 size=    1219kB time=00:00:35.60 bitrate= 280.6kbits/s dup=0 drop=2 speed=0.975x    frame=  257 fps=6.9 q=10.8 size=    1228kB time=00:00:36.00 bitrate= 279.4kbits/s dup=0 drop=2 speed=0.97x    frame=  260 fps=6.9 q=10.5 size=    1239kB time=00:00:36.50 bitrate= 278.0kbits/s dup=0 drop=2 speed=0.97x    frame=  263 fps=6.9 q=10.7 size=    1250kB time=00:00:37.00 bitrate= 276.7kbits/s dup=0 drop=2 speed=0.97x    frame=  267 fps=6.9 q=10.5 size=    1283kB time=00:00:37.63 bitrate= 279.2kbits/s dup=0 drop=2 speed=0.973x    frame=  273 fps=7.0 q=10.1 size=    1305kB time=00:00:38.64 bitrate= 276.7kbits/s dup=0 drop=2 speed=0.986x    frame=  278 fps=7.0 q=10.5 size=    1341kB time=00:00:39.27 bitrate= 279.7kbits/s dup=0 drop=2 speed=0.987x    frame=  282 fps=7.0 q=8.3 size=    1349kB time=00:00:39.60 bitrate= 279.1kbits/s dup=0 drop=2 speed=0.98x    frame=  286 fps=7.0 q=9.8 size=    1360kB time=00:00:39.94 bitrate= 279.0kbits/s dup=0 drop=2 speed=0.973x    frame=  289 fps=7.0 q=7.7 size=    1371kB time=00:00:40.41 bitrate= 277.8kbits/s dup=0 drop=2 speed=0.973x    frame=  292 fps=6.9 q=10.1 size=    1399kB time=00:00:40.90 bitrate= 280.2kbits/s dup=0 drop=2 speed=0.973x    frame=  295 fps=6.9 q=9.8 size=    1410kB time=00:00:41.37 bitrate= 279.1kbits/s dup=0 drop=2 speed=0.972x    frame=  299 fps=6.9 q=9.9 size=    1428kB time=00:00:42.08 bitrate= 278.0kbits/s dup=0 drop=2 speed=0.978x    frame=  302 fps=6.9 q=10.2 size=    1456kB time=00:00:42.54 bitrate= 280.3kbits/s dup=0 drop=2 speed=0.977x    frame=  305 fps=6.9 q=9.6 size=    1466kB time=00:00:43.04 bitrate= 279.0kbits/s dup=0 drop=2 speed=0.977x    frame=  308 fps=6.9 q=9.4 size=    1477kB time=00:00:43.41 bitrate= 278.7kbits/s dup=0 drop=2 speed=0.975x    frame=  311 fps=6.9 q=9.5 size=    1487kB time=00:00:43.87 bitrate= 277.6kbits/s dup=0 drop=2 speed=0.974x    frame=  314 fps=6.9 q=10.5 size=    1515kB time=00:00:44.37 bitrate= 279.7kbits/s dup=0 drop=2 speed=0.974x    frame=  317 fps=6.9 q=11.3 size=    1527kB time=00:00:44.87 bitrate= 278.8kbits/s dup=0 drop=2 speed=0.974x    frame=  322 fps=6.9 q=11.7 size=    1548kB time=00:00:45.71 bitrate= 277.3kbits/s dup=0 drop=2 speed=0.98x    frame=  328 fps=7.0 q=10.4 size=    1588kB time=00:00:46.74 bitrate= 278.4kbits/s dup=0 drop=2 speed=0.992x    frame=  332 fps=7.0 q=9.3 size=    1600kB time=00:00:47.11 bitrate= 278.2kbits/s dup=0 drop=2 speed=0.987x    frame=  335 fps=6.9 q=11.3 size=    1609kB time=00:00:47.38 bitrate= 278.2kbits/s dup=0 drop=2 speed=0.981x    frame=  338 fps=6.9 q=10.8 size=    1636kB time=00:00:47.64 bitrate= 281.2kbits/s dup=0 drop=2 speed=0.977x    frame=  341 fps=6.9 q=12.9 size=    1646kB time=00:00:48.08 bitrate= 280.4kbits/s dup=0 drop=2 speed=0.975x    frame=  344 fps=6.9 q=18.8 size=    1668kB time=00:00:48.61 bitrate= 281.0kbits/s dup=0 drop=2 speed=0.976x    frame=  347 fps=6.9 q=15.7 size=    1680kB time=00:00:49.11 bitrate= 280.1kbits/s dup=0 drop=2 speed=0.976x    frame=  352 fps=6.9 q=12.8 size=    1714kB time=00:00:49.98 bitrate= 280.9kbits/s dup=0 drop=2 speed=0.982x    frame=  358 fps=6.9 q=20.5 size=    1750kB time=00:00:51.01 bitrate= 281.0kbits/s dup=0 drop=2 speed=0.99x    frame=  362 fps=7.0 q=17.2 size=    1776kB time=00:00:51.38 bitrate= 283.1kbits/s dup=0 drop=2 speed=0.988x    frame=  365 fps=6.9 q=13.2 size=    1784kB time=00:00:51.68 bitrate= 282.8kbits/s dup=0 drop=2 speed=0.982x    frame=  369 fps=6.9 q=10.9 size=    1796kB time=00:00:52.18 bitrate= 282.0kbits/s dup=0 drop=2 speed=0.979x    frame=  372 fps=6.9 q=11.3 size=    1808kB time=00:00:52.68 bitrate= 281.1kbits/s dup=0 drop=2 speed=0.979x    frame=  375 fps=6.9 q=11.1 size=    1838kB time=00:00:53.16 bitrate= 283.3kbits/s dup=0 drop=2 speed=0.979x    frame=  379 fps=6.9 q=9.5 size=    1851kB time=00:00:53.78 bitrate= 281.9kbits/s dup=0 drop=2 speed=0.981x    frame=  384 fps=6.9 q=10.5 size=    1873kB time=00:00:54.65 bitrate= 280.8kbits/s dup=0 drop=2 speed=0.988x    frame=  387 fps=6.9 q=10.5 size=    1902kB time=00:00:55.12 bitrate= 282.6kbits/s dup=0 drop=2 speed=0.987x    frame=  391 fps=6.9 q=9.9 size=    1913kB time=00:00:55.52 bitrate= 282.3kbits/s dup=0 drop=2 speed=0.983x    frame=  395 fps=6.9 q=9.3 size=    1925kB time=00:00:56.02 bitrate= 281.5kbits/s dup=0 drop=2 speed=0.98x    frame=  398 fps=6.9 q=9.7 size=    1956kB time=00:00:56.55 bitrate= 283.3kbits/s dup=0 drop=2 speed=0.981x    frame=  402 fps=6.9 q=9.3 size=    1970kB time=00:00:57.15 bitrate= 282.3kbits/s dup=0 drop=2 speed=0.983x    frame=  405 fps=6.9 q=9.7 size=    1982kB time=00:00:57.65 bitrate= 281.6kbits/s dup=0 drop=2 speed=0.982x    frame=  410 fps=6.9 q=9.8 size=    2020kB time=00:00:58.49 bitrate= 282.8kbits/s dup=0 drop=2 speed=0.988x    frame=  413 fps=6.9 q=9.8 size=    2032kB time=00:00:58.96 bitrate= 282.3kbits/s dup=0 drop=2 speed=0.986x    frame=  417 fps=6.9 q=9.4 size=    2044kB time=00:00:59.36 bitrate= 282.1kbits/s dup=0 drop=2 speed=0.982x    frame=  420 fps=6.9 q=9.0 size=    2056kB time=00:00:59.86 bitrate= 281.3kbits/s dup=0 drop=2 speed=0.982x    frame=  423 fps=6.9 q=9.3 size=    2088kB time=00:01:00.34 bitrate= 283.4kbits/s dup=0 drop=2 speed=0.982x    frame=  427 fps=6.9 q=9.4 size=    2101kB time=00:01:00.96 bitrate= 282.3kbits/s dup=0 drop=2 speed=0.982x    frame=  433 fps=6.9 q=7.4 size=    2124kB time=00:01:01.96 bitrate= 280.8kbits/s dup=0 drop=2 speed=0.989x    frame=  437 fps=6.9 q=9.4 size=    2160kB time=00:01:02.59 bitrate= 282.7kbits/s dup=0 drop=2 speed=0.99x    frame=  440 fps=6.9 q=9.9 size=    2171kB time=00:01:02.90 bitrate= 282.8kbits/s dup=0 drop=2 speed=0.986x    frame=  444 fps=6.9 q=8.4 size=    2180kB time=00:01:03.26 bitrate= 282.3kbits/s dup=0 drop=2 speed=0.982x    frame=  447 fps=6.9 q=11.3 size=    2215kB time=00:01:03.76 bitrate= 284.6kbits/s dup=0 drop=2 speed=0.983x    frame=  450 fps=6.9 q=14.4 size=    2232kB time=00:01:04.26 bitrate= 284.5kbits/s dup=0 drop=2 speed=0.983x    frame=  454 fps=6.9 q=13.0 size=    2247kB time=00:01:04.89 bitrate= 283.7kbits/s dup=0 drop=2 speed=0.983x    frame=  460 fps=6.9 q=13.8 size=    2288kB time=00:01:05.90 bitrate= 284.4kbits/s dup=0 drop=2 speed=0.989x    frame=  463 fps=6.9 q=11.8 size=    2301kB time=00:01:06.36 bitrate= 284.0kbits/s dup=0 drop=2 speed=0.988x    frame=  467 fps=6.9 q=13.1 size=    2316kB time=00:01:06.80 bitrate= 284.0kbits/s dup=0 drop=2 speed=0.986x    frame=  471 fps=6.9 q=11.6 size=    2343kB time=00:01:07.30 bitrate= 285.1kbits/s dup=0 drop=2 speed=0.984x    frame=  474 fps=6.9 q=12.3 size=    2356kB time=00:01:07.80 bitrate= 284.7kbits/s dup=0 drop=2 speed=0.984x    frame=  477 fps=6.9 q=11.3 size=    2370kB time=00:01:08.28 bitrate= 284.3kbits/s dup=0 drop=2 speed=0.984x    frame=  481 fps=6.9 q=9.6 size=    2388kB time=00:01:08.90 bitrate= 283.9kbits/s dup=0 drop=2 speed=0.985x    frame=  486 fps=6.9 q=24.0 size=    2445kB time=00:01:09.73 bitrate= 287.3kbits/s dup=0 drop=2 speed=0.988x    frame=  489 fps=6.9 q=23.9 size=    2481kB time=00:01:10.23 bitrate= 289.4kbits/s dup=0 drop=2 speed=0.987x    frame=  492 fps=6.9 q=24.8 size=    2515kB time=00:01:10.53 bitrate= 292.0kbits/s dup=0 drop=2 speed=0.983x    frame=  495 fps=6.8 q=24.8 size=    2549kB time=00:01:10.87 bitrate= 294.6kbits/s dup=0 drop=2 speed=0.98x    frame=  498 fps=6.8 q=31.0 size=    2586kB time=00:01:11.47 bitrate= 296.4kbits/s dup=0 drop=2 speed=0.98x    frame=  501 fps=6.8 q=24.8 size=    2622kB time=00:01:12.04 bitrate= 298.1kbits/s dup=0 drop=2 speed=0.98x    frame=  504 fps=6.8 q=24.8 size=    2658kB time=00:01:12.64 bitrate= 299.8kbits/s dup=0 drop=2 speed=0.981x    frame=  507 fps=6.8 q=31.0 size=    2697kB time=00:01:13.24 bitrate= 301.6kbits/s dup=0 drop=2 speed=0.981x    frame=  510 fps=6.8 q=24.8 size=    2728kB time=00:01:13.84 bitrate= 302.6kbits/s dup=0 drop=2 speed=0.981x    frame=  513 fps=6.8 q=31.0 size=    2766kB time=00:01:14.37 bitrate= 304.7kbits/s dup=0 drop=2 speed=0.98x    frame=  516 fps=6.7 q=31.0 size=    2805kB time=00:01:15.00 bitrate= 306.3kbits/s dup=0 drop=2 speed=0.98x    frame=  519 fps=6.7 q=31.0 size=    2836kB time=00:01:15.57 bitrate= 307.4kbits/s dup=0 drop=2 speed=0.981x    frame=  522 fps=6.7 q=31.0 size=    2867kB time=00:01:16.21 bitrate= 308.2kbits/s dup=0 drop=2 speed=0.982x    frame=  525 fps=6.7 q=31.0 size=    2903kB time=00:01:16.84 bitrate= 309.5kbits/s dup=0 drop=2 speed=0.983x    frame=  528 fps=6.7 q=31.0 size=    2932kB time=00:01:17.41 bitrate= 310.3kbits/s dup=0 drop=2 speed=0.983x    frame=  531 fps=6.7 q=24.8 size=    2951kB time=00:01:17.87 bitrate= 310.4kbits/s dup=0 drop=2 speed=0.983x    frame=  534 fps=6.7 q=31.0 size=    2986kB time=00:01:18.47 bitrate= 311.7kbits/s dup=0 drop=2 speed=0.983x    frame=  537 fps=6.7 q=31.0 size=    3017kB time=00:01:19.04 bitrate= 312.6kbits/s dup=0 drop=2 speed=0.983x    [flv @ 0xb71460] Failed to update header with correct duration.
[flv @ 0xb71460] Failed to update header with correct filesize.
frame=  541 fps=6.7 q=31.0 Lsize=    3062kB time=00:01:19.78 bitrate= 314.4kbits/s dup=0 drop=2 speed=0.984x    
video:1760kB audio:1246kB subtitle:0kB other streams:0kB global headers:0kB muxing overhead: 1.878654%
